<?xml version="1.0" encoding="UTF-8"?>
<svg version="1.1" viewBox="0 0 2048 1314" width="1280" height="1280" xmlns="http://www.w3.org/2000/svg">
<path transform="translate(1296,68)" d="m0 0h57l37 3 30 4 37 7 36 9 36 12 28 11 29 14 24 12 24 14 24 16 17 12 14 11 10 8 13 11 14 12 16 15 8 8 7 8 11 12 9 11 11 13 13 18 10 14 10 15 14 23 14 26 11 22 13 31 9 26 11 36 9 39 6 37 3 26 1 20 1 9v46l-1 8-2 31-8 52-8 34-9 31-9 26-12 29-12 27-11 21-16 27-9 14-24 34-14 17-11 13-11 11-7 8-22 22-8 7-12 11-10 8-16 13-17 12-18 12-25 15-24 13-28 14-31 13-36 12-32 9-37 8-33 5-27 3h-100l-46-6-34-7-36-9-36-12-27-11-26-12-26-13-27-16-27-18-19-14-13-11-10-8-12-11-8-7-7-7-8-7-9-9-7-8-15-16-9-11-14-18-13-18-14-21-17-28-12-23-8-16-12-28-14-39-9-31-8-36-6-35-3-24-3-39v-32l5-52 5-36 6-28 8-32 12-36 11-28 11-24 11-22 11-20 12-20 16-23 12-17 13-16 12-14 9-11 12-13 27-27 11-9 14-12 26-20 33-22 22-13 24-13 23-11 26-11 30-11 34-10 30-7 41-7 36-4zm18 204-30 2-26 4-28 6-26 8-24 9-33 16-14 8-25 16-17 13-14 12-11 9-7 7-5 4-7 8-9 10-11 14-13 17-11 17-11 19-14 27-13 32-9 29-5 20-5 34-2 20v46l4 33 5 26 7 26 9 27 13 30 11 21 12 19 11 16 10 13 8 10 11 12 9 10 11 11 8 7 10 9 17 13 30 20 28 15 26 12 28 10 21 6 33 7 25 3 18 2h36l13-2 22-2 34-7 25-7 28-10 26-12 27-14 22-14 14-10 13-11 11-9 12-11 15-15 7-8 11-13 13-17 12-18 10-17 10-19 13-30 9-27 7-27 5-29 4-33v-40l-4-33-4-24-6-25-8-26-12-30-13-26-13-22-15-22-10-13-10-11-7-8-25-25-11-9-15-12-30-20-21-12-30-15-26-10-31-9-24-5-37-5-26-1z" fill="#0ACBB7"/>
<path transform="translate(157,77)" d="m0 0h189l8 1 1 1 1 1166-7 2h-192l-2-4v-1149l1-16z" fill="#214A4E"/>
<path transform="translate(354,79)" d="m0 0h1l1 1166-3 1-1-325v-484l1-302z" fill="#FEFEFD"/>
</svg>
